<?xml version="1.0" standalone="no"?>
<!DOCTYPE svg PUBLIC "-//W3C//DTD SVG 20010904//EN"
 "http://www.w3.org/TR/2001/REC-SVG-20010904/DTD/svg10.dtd">
<svg version="1.0" xmlns="http://www.w3.org/2000/svg"
 width="1280.000000pt" height="1280.000000pt" viewBox="0 0 1280.000000 1280.000000"
 preserveAspectRatio="xMidYMid meet">

<g transform="translate(0.000000,1280.000000) scale(0.100000,-0.100000)"
fill="#000000" stroke="none">
<path d="M0 6400 l0 -6400 6400 0 6400 0 0 6400 0 6400 -6400 0 -6400 0 0
-6400z m3084 1562 c33 -12 80 -34 105 -49 61 -35 150 -127 184 -190 30 -57 67
-187 67 -240 l0 -33 -94 0 -93 0 -6 56 c-11 110 -91 219 -195 267 -46 21 -61
22 -536 27 l-490 5 54 48 c30 27 81 62 114 79 104 53 148 57 506 55 307 -3
328 -4 384 -25z m1847 14 c199 -43 362 -210 400 -411 41 -221 -73 -455 -273
-556 -93 -47 -163 -59 -355 -59 l-173 0 0 94 0 94 193 4 192 3 63 34 c85 46
149 126 167 208 11 55 7 141 -10 193 -22 67 -100 151 -173 187 l-57 28 -497 3
-498 3 0 94 0 95 478 0 c371 0 492 -3 543 -14z m4009 -81 l0 -95 -346 0 c-204
0 -375 -5 -417 -11 -248 -38 -458 -192 -566 -413 -59 -121 -75 -191 -75 -331
-1 -145 15 -212 81 -345 39 -81 60 -109 137 -185 75 -75 108 -98 186 -138 161
-80 163 -80 608 -85 l392 -3 0 -95 0 -95 -407 4 c-463 4 -483 7 -658 92 -315
152 -515 456 -532 805 -24 487 326 908 813 979 32 5 222 9 422 10 l362 1 0
-95z m1820 0 l0 -95 -700 0 -700 0 0 95 0 95 700 0 700 0 0 -95z m-4477 -37
c26 -57 47 -107 47 -113 0 -9 -128 -285 -615 -1330 l-140 -300 -103 -3 c-56
-1 -102 1 -102 6 0 4 87 194 194 422 377 807 609 1306 634 1363 13 31 28 57
31 57 4 0 28 -46 54 -102z m-4188 -410 c20 -130 75 -213 176 -268 l64 -35 340
-6 c313 -5 345 -7 406 -27 82 -27 192 -103 242 -168 69 -89 117 -217 117 -316
l0 -28 -94 0 -93 0 -6 56 c-11 110 -86 211 -195 266 -46 22 -56 23 -392 28
-325 5 -349 7 -405 28 -198 74 -345 271 -345 464 l0 48 89 0 89 0 7 -42z
m2005 -828 l0 -520 -95 0 -95 0 0 520 0 520 95 0 95 0 0 -520z m6660 425 l0
-95 -700 0 -700 0 0 95 0 95 700 0 700 0 0 -95z m-3840 -561 c91 -196 167
-360 168 -365 2 -5 -42 -9 -101 -9 l-104 0 -163 353 c-89 193 -165 358 -167
365 -4 9 20 12 98 12 l104 0 165 -356z m-4821 87 c16 -88 60 -164 126 -213 91
-69 84 -68 619 -68 l481 -1 -59 -55 c-67 -61 -132 -96 -224 -119 -52 -14 -116
-16 -395 -13 -315 3 -335 4 -392 26 -199 74 -345 269 -345 459 l0 53 88 0 89
0 12 -69z m8661 -376 l0 -95 -700 0 -700 0 0 95 0 95 700 0 700 0 0 -95z
m-8209 -815 c-34 -72 -61 -134 -61 -138 0 -3 34 -79 76 -169 78 -166 82 -184
50 -228 -13 -19 -14 -18 -29 15 -8 19 -78 171 -156 337 -77 167 -141 305 -141
308 0 3 18 5 40 5 22 0 40 -4 40 -9 0 -4 18 -46 39 -92 l39 -84 42 92 c41 89
44 92 79 95 20 2 38 2 40 1 2 -1 -24 -61 -58 -133z m369 124 c0 -2 -27 -61
-59 -131 -59 -127 -59 -128 -95 -131 -20 -2 -36 1 -36 7 0 5 27 67 61 138 l60
129 35 -4 c19 -2 34 -6 34 -8z m1286 -3 c168 -76 133 -324 -51 -363 -25 -5
-45 -12 -45 -14 0 -3 47 -72 105 -154 58 -82 105 -152 105 -155 0 -3 -18 -5
-39 -5 l-40 0 -110 158 c-92 129 -111 163 -111 193 l0 36 73 5 c83 5 118 23
141 73 22 45 20 76 -7 116 -37 55 -53 59 -259 59 l-188 0 0 35 0 35 193 0
c166 0 198 -3 233 -19z m700 0 c62 -28 97 -80 102 -152 6 -75 -1 -101 -40
-144 -36 -41 -68 -60 -120 -69 -21 -4 -38 -9 -38 -12 0 -3 46 -71 103 -152 56
-80 104 -150 105 -154 2 -4 -15 -8 -37 -8 -39 0 -41 2 -109 98 -152 214 -159
227 -154 260 4 31 6 32 52 32 75 0 108 10 140 43 37 38 46 82 26 130 -28 69
-55 77 -268 77 l-188 0 0 35 0 35 193 0 c166 0 198 -3 233 -19z m344 -336 l0
-355 -35 0 -35 0 0 355 0 355 35 0 35 0 0 -355z m761 323 c74 -34 133 -94 170
-171 38 -82 38 -97 -4 -97 -30 0 -34 4 -50 49 -24 68 -91 134 -165 161 -49 19
-73 21 -172 18 -94 -3 -123 -8 -156 -25 -55 -29 -127 -111 -143 -162 -11 -38
-15 -41 -46 -41 -44 0 -45 14 -6 95 33 68 69 110 130 150 66 44 121 55 261 52
111 -2 131 -5 181 -29z m807 -1 c53 -34 82 -91 82 -156 0 -107 -60 -178 -167
-196 l-41 -7 92 -131 c51 -73 101 -144 110 -159 l18 -28 -40 0 -41 0 -95 133
c-121 172 -136 196 -136 230 0 27 0 27 69 27 81 0 125 24 154 83 17 33 17 42
5 79 -9 28 -24 50 -47 65 -32 22 -43 23 -222 23 l-189 0 0 36 0 35 203 -3
c203 -3 204 -3 245 -31z m703 19 c64 -27 119 -102 119 -162 0 -21 -5 -24 -35
-24 -29 0 -35 4 -35 21 0 30 -28 74 -60 93 -23 13 -60 16 -211 16 l-183 0 22
23 c12 12 37 27 55 34 48 17 286 16 328 -1z m1339 -20 l0 -34 -162 -4 c-159
-3 -164 -4 -216 -33 -100 -55 -146 -133 -147 -245 0 -85 22 -143 77 -199 65
-67 95 -75 278 -81 l165 -5 3 -37 3 -38 -118 0 c-209 0 -297 26 -380 112 -23
23 -54 68 -70 98 -24 48 -27 67 -28 145 0 76 4 98 26 145 33 70 79 123 136
157 75 44 118 52 281 52 l152 1 0 -34z m230 -226 l0 -260 -35 0 -35 0 0 260 0
260 35 0 35 0 0 -260z m620 -19 c0 -270 1 -279 22 -306 34 -44 75 -55 200 -55
124 0 165 12 201 61 18 25 19 44 18 303 l-2 276 36 0 36 0 -3 -294 -3 -294
-31 -39 c-58 -71 -80 -78 -249 -78 -171 0 -203 10 -259 79 l-31 38 -3 294 -3
294 36 0 35 0 0 -279z m1098 246 c53 -34 82 -91 82 -156 0 -61 -13 -97 -47
-133 l-27 -28 21 -22 c35 -39 53 -85 53 -138 0 -65 -18 -107 -63 -147 -50 -44
-113 -55 -292 -51 l-150 3 -3 32 -3 32 180 3 c203 3 218 8 255 83 17 35 18 42
5 79 -9 25 -27 49 -48 63 -32 22 -43 23 -212 23 l-179 0 0 35 0 35 171 0 c204
0 230 8 261 77 17 40 18 49 6 86 -9 27 -24 49 -47 64 -32 22 -43 23 -212 23
l-179 0 0 36 0 35 193 -3 c192 -3 194 -3 235 -31z m-8726 -49 c19 -40 83 -177
142 -305 l107 -231 -19 -38 -19 -38 -16 30 c-8 16 -77 162 -152 324 -75 162
-141 303 -146 313 -9 15 -5 17 29 17 39 0 40 -1 74 -72z m1118 -312 l-143
-306 -38 0 -38 0 33 73 c19 39 82 176 141 302 59 127 117 250 128 275 l20 45
20 -42 20 -41 -143 -306z m3940 187 c0 -32 40 -84 75 -99 24 -9 73 -14 157
-14 102 0 128 -3 164 -20 51 -25 94 -84 101 -139 l6 -41 -37 0 c-30 0 -36 4
-36 20 0 34 -28 79 -60 95 -21 11 -61 15 -142 15 -128 0 -178 11 -227 47 -35
27 -70 92 -71 131 0 19 5 22 35 22 27 0 35 -4 35 -17z m-3290 -307 l0 -193
-22 2 c-13 1 -29 3 -35 4 -10 1 -13 46 -13 191 l0 190 35 0 35 0 0 -194z m700
1 l0 -193 -32 1 -33 2 -3 191 -2 192 35 0 35 0 0 -193z m1890 0 l0 -193 -35
-2 -35 -3 0 196 0 195 35 0 35 0 0 -193z m-946 60 c24 -62 78 -122 139 -151
47 -24 64 -26 174 -27 100 0 130 3 166 19 66 29 122 85 148 147 21 51 25 55
56 55 42 0 43 -17 2 -98 -37 -76 -110 -143 -187 -173 -48 -19 -76 -22 -182
-22 -149 0 -210 18 -287 88 -47 41 -95 120 -109 178 -6 25 -4 27 29 27 31 0
36 -4 51 -43z m-1933 -107 c32 -69 58 -128 58 -132 1 -5 -16 -8 -36 -8 l-38 1
-62 135 -62 135 41 -3 41 -3 58 -125z m3579 38 c0 -36 38 -88 75 -104 25 -10
80 -14 207 -14 l173 -1 -30 -24 c-43 -36 -116 -48 -243 -43 -101 4 -115 7
-159 34 -52 32 -93 96 -93 146 0 25 3 28 35 28 30 0 35 -3 35 -22z m2338 -150
l3 -38 -230 0 -231 0 0 40 0 41 228 -3 227 -3 3 -37z"/>
</g>
</svg>
