<svg width="102" height="49" viewBox="0 0 102 49" fill="none" xmlns="http://www.w3.org/2000/svg">
<path d="M12.4414 18.1562H11.2598C10.7585 18.1562 10.3971 18.0293 10.1758 17.7754C9.95443 17.515 9.84375 17.1732 9.84375 16.75C9.84375 15.8125 10.5436 15.3438 11.9434 15.3438C13.2585 15.3438 14.248 15.5391 14.9121 15.9297L14.3457 16.3594C13.89 16.151 13.0892 16.0469 11.9434 16.0469C11.3835 16.0469 11.0059 16.1087 10.8105 16.2324C10.6217 16.3561 10.5273 16.5286 10.5273 16.75C10.5273 16.9714 10.5794 17.1439 10.6836 17.2676C10.7878 17.3913 10.9798 17.4531 11.2598 17.4531H12.4707C13.3496 17.4531 14.1406 17.6029 14.8438 17.9023C15.5534 18.2018 16.1361 18.612 16.5918 19.1328C17.0475 19.6471 17.3958 20.2428 17.6367 20.9199C17.8776 21.5905 17.998 22.3099 17.998 23.0781C17.998 23.7031 17.9102 24.2956 17.7344 24.8555C17.5586 25.4154 17.2917 25.9297 16.9336 26.3984C16.582 26.8672 16.1556 27.2741 15.6543 27.6191C15.1595 27.9577 14.5671 28.2214 13.877 28.4102C13.1934 28.6055 12.4512 28.7031 11.6504 28.7031C10.3939 28.7031 9.21549 28.5111 8.11523 28.127C7.02148 27.7493 6.11003 27.2188 5.38086 26.5352L5.94727 26.1152C6.61133 26.7142 7.44141 27.1797 8.4375 27.5117C9.4401 27.8372 10.5111 28 11.6504 28C12.5423 28 13.3464 27.873 14.0625 27.6191C14.7852 27.3587 15.3776 27.0039 15.8398 26.5547C16.3086 26.1055 16.6667 25.5846 16.9141 24.9922C17.168 24.3997 17.2949 23.7617 17.2949 23.0781C17.2949 22.1732 17.1126 21.3561 16.748 20.627C16.3835 19.8913 15.8268 19.2956 15.0781 18.8398C14.3359 18.3841 13.457 18.1562 12.4414 18.1562ZM11.2598 18.8594H12.373C13.6947 18.8594 14.7266 19.263 15.4688 20.0703C16.2174 20.8776 16.5918 21.8802 16.5918 23.0781C16.5918 24.2956 16.1589 25.3047 15.293 26.1055C14.4271 26.8997 13.2129 27.2969 11.6504 27.2969C10.6087 27.2969 9.63542 27.1536 8.73047 26.8672C7.82552 26.5807 7.07357 26.1771 6.47461 25.6562L7.02148 25.2168C7.55534 25.653 8.22591 25.9915 9.0332 26.2324C9.84701 26.4733 10.7194 26.5938 11.6504 26.5938C13.0241 26.5938 14.0723 26.265 14.7949 25.6074C15.5241 24.9499 15.8887 24.1068 15.8887 23.0781C15.8887 22.0625 15.5827 21.2227 14.9707 20.5586C14.3652 19.8945 13.4961 19.5625 12.3633 19.5625H11.2598C10.3092 19.5625 9.59635 19.3021 9.12109 18.7812C8.64583 18.2604 8.4082 17.5833 8.4082 16.75C8.4082 15.9167 8.70117 15.2396 9.28711 14.7188C9.87956 14.1979 10.765 13.9375 11.9434 13.9375C12.7702 13.9375 13.5384 14.0352 14.248 14.2305C14.9577 14.4193 15.5436 14.6927 16.0059 15.0508L15.4492 15.4805C14.6354 14.9206 13.4668 14.6406 11.9434 14.6406C10.9603 14.6406 10.2409 14.8359 9.78516 15.2266C9.33594 15.6107 9.11133 16.1185 9.11133 16.75C9.11133 17.388 9.27734 17.8991 9.60938 18.2832C9.94792 18.6673 10.498 18.8594 11.2598 18.8594ZM11.2598 20.2656H12.334C13.2845 20.2656 13.9974 20.5293 14.4727 21.0566C14.9479 21.584 15.1855 22.2578 15.1855 23.0781C15.1855 23.9115 14.8893 24.5885 14.2969 25.1094C13.7109 25.6302 12.8288 25.8906 11.6504 25.8906C10.8236 25.8906 10.0521 25.7962 9.33594 25.6074C8.6263 25.4121 8.04036 25.1354 7.57812 24.7773L8.13477 24.3477C8.94857 24.9076 10.1204 25.1875 11.6504 25.1875C12.6335 25.1875 13.3496 24.9954 13.7988 24.6113C14.2546 24.2207 14.4824 23.7096 14.4824 23.0781C14.4824 22.4466 14.3132 21.9388 13.9746 21.5547C13.6361 21.1641 13.0859 20.9688 12.3242 20.9688H11.2598C9.92513 20.9688 8.88021 20.5716 8.125 19.7773C7.3763 18.9766 7.00195 17.9674 7.00195 16.75C7.00195 15.5326 7.4349 14.5267 8.30078 13.7324C9.16667 12.9316 10.3809 12.5312 11.9434 12.5312C12.985 12.5312 13.9551 12.6745 14.8535 12.9609C15.7585 13.2474 16.5104 13.651 17.1094 14.1719L16.5625 14.6113C16.0286 14.1751 15.3581 13.8366 14.5508 13.5957C13.7435 13.3548 12.8743 13.2344 11.9434 13.2344C10.5697 13.2344 9.51823 13.5632 8.78906 14.2207C8.06641 14.8783 7.70508 15.7214 7.70508 16.75C7.70508 17.7721 8.01107 18.6152 8.62305 19.2793C9.23503 19.9368 10.1139 20.2656 11.2598 20.2656ZM11.2598 21.6719H12.334C12.8353 21.6719 13.1966 21.8021 13.418 22.0625C13.6393 22.3229 13.75 22.6615 13.75 23.0781C13.75 24.0156 13.0501 24.4844 11.6504 24.4844C10.3288 24.4844 9.33594 24.2891 8.67188 23.8984L9.23828 23.4688C9.69401 23.6771 10.498 23.7812 11.6504 23.7812C12.2103 23.7812 12.5846 23.7194 12.7734 23.5957C12.9688 23.472 13.0664 23.2995 13.0664 23.0781C13.0664 22.8633 13.0111 22.694 12.9004 22.5703C12.7962 22.4401 12.6009 22.375 12.3145 22.375H11.2598C10.3613 22.375 9.54753 22.2285 8.81836 21.9355C8.0957 21.6426 7.5 21.2389 7.03125 20.7246C6.56901 20.2103 6.21419 19.6146 5.9668 18.9375C5.7194 18.2604 5.5957 17.5312 5.5957 16.75C5.5957 16.125 5.68359 15.5326 5.85938 14.9727C6.03516 14.4128 6.29883 13.8984 6.65039 13.4297C7.00846 12.9609 7.4349 12.5573 7.92969 12.2188C8.43099 11.8737 9.02344 11.6068 9.70703 11.418C10.3971 11.2227 11.1426 11.125 11.9434 11.125C13.1999 11.125 14.375 11.3171 15.4688 11.7012C16.5625 12.0788 17.474 12.6094 18.2031 13.293L17.6367 13.7129C16.9727 13.1139 16.1426 12.6517 15.1465 12.3262C14.1504 11.9941 13.0827 11.8281 11.9434 11.8281C11.0514 11.8281 10.2441 11.9583 9.52148 12.2188C8.80534 12.4727 8.21289 12.8242 7.74414 13.2734C7.2819 13.7227 6.92383 14.2435 6.66992 14.8359C6.42253 15.4284 6.29883 16.0664 6.29883 16.75C6.29883 17.668 6.48438 18.4948 6.85547 19.2305C7.22656 19.9661 7.79297 20.5586 8.55469 21.0078C9.31641 21.4505 10.2181 21.6719 11.2598 21.6719ZM28.1293 20.3438H32.2113C32.8819 20.3438 33.4483 20.1191 33.9105 19.6699C34.3793 19.2142 34.6137 18.5729 34.6137 17.7461C34.6137 17.1276 34.3695 16.5742 33.8813 16.0859C33.393 15.5911 32.8363 15.3438 32.2113 15.3438H26.1762V28H25.473V14.6406H32.2113C33.0316 14.6406 33.7543 14.9564 34.3793 15.5879C35.0043 16.2194 35.3168 16.9388 35.3168 17.7461C35.3168 18.7422 35.0141 19.543 34.4086 20.1484C33.8031 20.7474 33.0707 21.0469 32.2113 21.0469H28.1293V20.3438ZM28.1293 21.75H32.2113C32.8884 21.75 33.5134 21.5872 34.0863 21.2617C34.6658 20.9297 35.1313 20.4544 35.4828 19.8359C35.8409 19.2174 36.0199 18.5208 36.0199 17.7461C36.0199 16.7435 35.6358 15.8581 34.8676 15.0898C34.1059 14.3216 33.2204 13.9375 32.2113 13.9375H24.7699V28H24.0668V13.2344H32.2113C32.9991 13.2344 33.7413 13.4427 34.4379 13.8594C35.1345 14.276 35.6879 14.8327 36.098 15.5293C36.5147 16.2259 36.723 16.9648 36.723 17.7461C36.723 18.6315 36.5147 19.4388 36.098 20.168C35.6814 20.8906 35.128 21.4538 34.4379 21.8574C33.7543 22.2546 33.0121 22.4531 32.2113 22.4531H28.1293V21.75ZM28.1293 23.1562H32.2113C32.9079 23.1562 33.5753 23.0195 34.2133 22.7461C34.8513 22.4661 35.4047 22.0918 35.8734 21.623C36.3487 21.1478 36.7263 20.5749 37.0063 19.9043C37.2862 19.2272 37.4262 18.5078 37.4262 17.7461C37.4262 16.8346 37.1885 15.9785 36.7133 15.1777C36.238 14.3704 35.5967 13.7292 34.7895 13.2539C33.9887 12.7721 33.1293 12.5312 32.2113 12.5312H23.3637V28H22.6605V11.8281H32.2113C33.253 11.8281 34.2296 12.1016 35.141 12.6484C36.0525 13.1888 36.7784 13.9147 37.3188 14.8262C37.8591 15.7376 38.1293 16.7109 38.1293 17.7461C38.1293 18.6706 37.9698 19.5234 37.6508 20.3047C37.3318 21.0794 36.9021 21.724 36.3617 22.2383C35.8214 22.7526 35.1931 23.153 34.477 23.4395C33.7608 23.7194 33.0056 23.8594 32.2113 23.8594H28.1293V23.1562ZM27.5824 28H26.8793V16.0469H32.2113C32.6736 16.0469 33.0707 16.2161 33.4027 16.5547C33.7413 16.8932 33.9105 17.2904 33.9105 17.7461C33.9105 19.0091 33.3441 19.6406 32.2113 19.6406H28.1293V18.9375H32.2113C32.5238 18.9375 32.768 18.8496 32.9438 18.6738C33.1195 18.498 33.2074 18.1888 33.2074 17.7461C33.2074 17.4596 33.1098 17.222 32.9145 17.0332C32.7257 16.8444 32.4913 16.75 32.2113 16.75H27.5824V28ZM49.7547 23.2539L50.0379 22.5508H52.4402L52.7234 23.2539H49.7547ZM49.2078 24.6602L49.4813 23.957H52.9871L53.2898 24.6602H49.2078ZM48.6609 26.0664L48.9344 25.3633H53.5438L53.8367 26.0664H48.6609ZM42.948 28H42.1863L48.5828 11.8281H49.3445L55.7313 28H54.9793L48.9637 12.7754L42.948 28ZM49.0516 14.4453L49.452 15.3438L44.452 28H43.7L49.0516 14.4453ZM49.8328 16.3008L50.2039 17.2676L45.9754 28H45.2137L49.8328 16.3008ZM50.575 18.2344L50.9461 19.2207L47.4793 28H46.7273L50.575 18.2344ZM60.2723 28H59.5105L53.1238 11.8281H53.8758L60.2723 28ZM52.3621 11.8281L58.7586 28H58.0066L51.6102 11.8281H52.3621ZM50.8484 11.8281L57.2449 28H56.4832L50.0965 11.8281H50.8484ZM75.7746 17.3555L75.1984 17.7363C74.8469 17.2155 74.3879 16.8053 73.8215 16.5059C73.2616 16.1999 72.6529 16.0469 71.9953 16.0469C70.9276 16.0469 70.0161 16.4245 69.2609 17.1797C68.5057 17.9349 68.1281 18.8464 68.1281 19.9141C68.1281 20.9818 68.5057 21.8932 69.2609 22.6484C70.0161 23.4036 70.9276 23.7812 71.9953 23.7812C72.6529 23.7812 73.2616 23.6283 73.8215 23.3223C74.3879 23.0163 74.8469 22.6029 75.1984 22.082L75.7648 22.4922C75.3482 23.1042 74.8078 23.5892 74.1437 23.9473C73.4797 24.3053 72.7635 24.4844 71.9953 24.4844C71.3768 24.4844 70.7844 24.3639 70.218 24.123C69.6581 23.8822 69.173 23.5566 68.7629 23.1465C68.3527 22.7363 68.0272 22.2513 67.7863 21.6914C67.5454 21.125 67.425 20.5326 67.425 19.9141C67.425 19.2956 67.5454 18.7064 67.7863 18.1465C68.0272 17.5801 68.3527 17.0918 68.7629 16.6816C69.173 16.2715 69.6581 15.946 70.218 15.7051C70.7844 15.4642 71.3768 15.3438 71.9953 15.3438C72.7701 15.3438 73.4895 15.526 74.1535 15.8906C74.8176 16.2487 75.3579 16.737 75.7746 17.3555ZM76.9367 16.5547L76.3508 16.9355C75.869 16.2324 75.244 15.6758 74.4758 15.2656C73.7141 14.849 72.8872 14.6406 71.9953 14.6406C71.0383 14.6406 70.1561 14.8783 69.3488 15.3535C68.5415 15.8223 67.9003 16.4603 67.425 17.2676C66.9562 18.0749 66.7219 18.957 66.7219 19.9141C66.7219 20.8711 66.9562 21.7533 67.425 22.5605C67.9003 23.3678 68.5415 24.0091 69.3488 24.4844C70.1561 24.9531 71.0383 25.1875 71.9953 25.1875C72.8872 25.1875 73.7173 24.9792 74.4855 24.5625C75.2538 24.1458 75.8788 23.5827 76.3605 22.873L76.9367 23.2734C76.3898 24.0807 75.6802 24.7188 74.8078 25.1875C73.9419 25.6562 73.0044 25.8906 71.9953 25.8906C70.9146 25.8906 69.9152 25.6237 68.9973 25.0898C68.0793 24.556 67.3534 23.8301 66.8195 22.9121C66.2857 21.9941 66.0187 20.9948 66.0187 19.9141C66.0187 18.8333 66.2857 17.834 66.8195 16.916C67.3534 15.998 68.0793 15.2721 68.9973 14.7383C69.9152 14.2044 70.9146 13.9375 71.9953 13.9375C73.0044 13.9375 73.9419 14.1719 74.8078 14.6406C75.6802 15.1094 76.3898 15.7474 76.9367 16.5547ZM78.1086 15.7734L77.5227 16.1543C76.9107 15.2559 76.1164 14.5462 75.1398 14.0254C74.1698 13.498 73.1216 13.2344 71.9953 13.2344C71.0904 13.2344 70.2245 13.4102 69.3977 13.7617C68.5708 14.1133 67.8579 14.5885 67.259 15.1875C66.6665 15.7799 66.1945 16.4896 65.843 17.3164C65.4914 18.1432 65.3156 19.0091 65.3156 19.9141C65.3156 20.819 65.4914 21.6849 65.843 22.5117C66.1945 23.3385 66.6665 24.0514 67.259 24.6504C67.8579 25.2428 68.5708 25.7148 69.3977 26.0664C70.2245 26.418 71.0904 26.5938 71.9953 26.5938C73.1281 26.5938 74.1796 26.3301 75.1496 25.8027C76.1197 25.2754 76.9107 24.5625 77.5227 23.6641L78.0891 24.084C77.412 25.0736 76.5363 25.8581 75.4621 26.4375C74.3944 27.0104 73.2388 27.2969 71.9953 27.2969C70.6607 27.2969 69.427 26.9681 68.2941 26.3105C67.1613 25.6465 66.2629 24.748 65.5988 23.6152C64.9413 22.4824 64.6125 21.2487 64.6125 19.9141C64.6125 18.5794 64.9413 17.3457 65.5988 16.2129C66.2629 15.0801 67.1613 14.1849 68.2941 13.5273C69.427 12.8633 70.6607 12.5312 71.9953 12.5312C73.2453 12.5312 74.4074 12.8242 75.4816 13.4102C76.5559 13.9896 77.4315 14.7773 78.1086 15.7734ZM79.2609 14.9727L78.675 15.3535C77.9328 14.2663 76.9725 13.4069 75.7941 12.7754C74.6223 12.1439 73.356 11.8281 71.9953 11.8281C70.9016 11.8281 69.8534 12.043 68.8508 12.4727C67.8547 12.8958 66.9953 13.4688 66.2727 14.1914C65.55 14.9141 64.9738 15.7767 64.5441 16.7793C64.121 17.7754 63.9094 18.8203 63.9094 19.9141C63.9094 21.0078 64.121 22.056 64.5441 23.0586C64.9738 24.0547 65.55 24.9141 66.2727 25.6367C66.9953 26.3594 67.8547 26.9355 68.8508 27.3652C69.8534 27.7884 70.9016 28 71.9953 28C73.356 28 74.6255 27.681 75.8039 27.043C76.9823 26.4049 77.9426 25.5423 78.6848 24.4551L79.2512 24.8848C78.4439 26.0566 77.4022 26.9876 76.1262 27.6777C74.8501 28.3613 73.4732 28.7031 71.9953 28.7031C70.8039 28.7031 69.6646 28.4688 68.5773 28C67.4966 27.5378 66.5624 26.916 65.7746 26.1348C64.9934 25.347 64.3684 24.4128 63.8996 23.332C63.4374 22.2448 63.2062 21.1055 63.2062 19.9141C63.2062 18.7227 63.4374 17.5866 63.8996 16.5059C64.3684 15.4186 64.9934 14.4844 65.7746 13.7031C66.5624 12.9154 67.4966 12.2904 68.5773 11.8281C69.6646 11.3594 70.8039 11.125 71.9953 11.125C73.4797 11.125 74.8599 11.4701 76.1359 12.1602C77.412 12.8503 78.4536 13.7878 79.2609 14.9727ZM87.234 28H86.5309V11.8281H87.234V28ZM85.8277 28H85.1246V11.8281H85.8277V28ZM84.4215 28H83.7184V11.8281H84.4215V28ZM88.6402 24.4844H96.1207V25.1875H88.6402V25.8906H96.1207V26.5938H88.6402V27.2969H96.1207V28H87.9371V11.8281H96.1207V12.5312H88.6402V13.2344H96.1207V13.9375H88.6402V14.6406H96.1207V15.3438H88.6402V18.1562H92.4781V18.8594H88.6402V19.5625H92.4781V20.2656H88.6402V20.9688H92.4781V21.6719H88.6402V24.4844Z" fill="white"/>
<path d="M7.70996 39.3887L9.38965 33.8906H9.67285L9.29199 35.0723L7.51465 41H7.26562L7.70996 39.3887ZM5.59082 33.8906L7.06543 39.3887L7.50977 41H7.2168L5.29785 33.8906H5.59082ZM12.002 39.3887L13.4668 33.8906H13.7549L11.8408 41H11.5479L12.002 39.3887ZM9.68262 33.8906L11.3525 39.3887L11.792 41H11.543L9.78027 35.0723L9.39453 33.8906H9.68262ZM18.1652 34.1152L15.5969 41H15.3088L17.9699 33.8906H18.2238L18.1652 34.1152ZM20.6652 41L18.0969 34.1152L18.0432 33.8906H18.2922L20.9533 41H20.6652ZM19.9133 38.6123V38.876H16.3537V38.6123H19.9133ZM23.3764 33.8906H25.642C26.0945 33.8906 26.4965 33.9704 26.848 34.1299C27.1996 34.2861 27.4747 34.5173 27.6732 34.8232C27.8751 35.126 27.976 35.4987 27.976 35.9414C27.976 36.2865 27.9011 36.599 27.7514 36.8789C27.6016 37.1556 27.4014 37.3835 27.1508 37.5625C26.9001 37.7415 26.6202 37.8538 26.3109 37.8994L26.1596 37.958H23.4398L23.4301 37.6943H25.8813C26.2882 37.6943 26.6267 37.6097 26.8969 37.4404C27.1671 37.2712 27.3705 37.0531 27.5072 36.7861C27.6439 36.516 27.7123 36.2344 27.7123 35.9414C27.7123 35.5671 27.6277 35.248 27.4584 34.9844C27.2891 34.7174 27.0482 34.5124 26.7357 34.3691C26.4265 34.2259 26.0619 34.1543 25.642 34.1543H23.64V41H23.3764V33.8906ZM27.9955 41L26.0473 37.8652L26.3549 37.8555L28.2738 40.9316V41H27.9955ZM31.2193 33.8906H33.485C33.9374 33.8906 34.3395 33.9704 34.691 34.1299C35.0426 34.2861 35.3176 34.5173 35.5162 34.8232C35.718 35.126 35.8189 35.4987 35.8189 35.9414C35.8189 36.2865 35.7441 36.599 35.5943 36.8789C35.4446 37.1556 35.2444 37.3835 34.9937 37.5625C34.7431 37.7415 34.4632 37.8538 34.1539 37.8994L34.0025 37.958H31.2828L31.273 37.6943H33.7242C34.1311 37.6943 34.4697 37.6097 34.7398 37.4404C35.01 37.2712 35.2135 37.0531 35.3502 36.7861C35.4869 36.516 35.5553 36.2344 35.5553 35.9414C35.5553 35.5671 35.4706 35.248 35.3014 34.9844C35.1321 34.7174 34.8912 34.5124 34.5787 34.3691C34.2695 34.2259 33.9049 34.1543 33.485 34.1543H31.483V41H31.2193V33.8906ZM35.8385 41L33.8902 37.8652L34.1979 37.8555L36.1168 40.9316V41H35.8385ZM39.5457 33.8906V41H39.282V33.8906H39.5457ZM48.0283 36.9131V37.9775C48.0283 38.4398 47.9648 38.863 47.8379 39.2471C47.7142 39.6279 47.5352 39.9567 47.3008 40.2334C47.0697 40.5101 46.7897 40.7233 46.4609 40.873C46.1322 41.0228 45.7627 41.0977 45.3525 41.0977C44.9456 41.0977 44.5762 41.0228 44.2441 40.873C43.9154 40.7233 43.6322 40.5101 43.3945 40.2334C43.1602 39.9567 42.9795 39.6279 42.8525 39.2471C42.7288 38.863 42.667 38.4398 42.667 37.9775V36.9131C42.667 36.4476 42.7288 36.0244 42.8525 35.6436C42.9795 35.2627 43.1602 34.9339 43.3945 34.6572C43.6289 34.3805 43.9105 34.1673 44.2393 34.0176C44.568 33.8678 44.9359 33.793 45.3428 33.793C45.7529 33.793 46.1224 33.8678 46.4512 34.0176C46.7799 34.1673 47.0615 34.3805 47.2959 34.6572C47.5335 34.9339 47.7142 35.2627 47.8379 35.6436C47.9648 36.0244 48.0283 36.4476 48.0283 36.9131ZM47.7646 37.9775V36.9033C47.7646 36.4867 47.7109 36.1058 47.6035 35.7607C47.4961 35.4124 47.3382 35.1113 47.1299 34.8574C46.9215 34.6035 46.6676 34.4066 46.3682 34.2666C46.0687 34.1266 45.7269 34.0566 45.3428 34.0566C44.9619 34.0566 44.6217 34.1266 44.3223 34.2666C44.026 34.4066 43.7738 34.6035 43.5654 34.8574C43.3604 35.1113 43.2041 35.4124 43.0967 35.7607C42.9893 36.1058 42.9355 36.4867 42.9355 36.9033V37.9775C42.9355 38.3975 42.9893 38.7816 43.0967 39.1299C43.2074 39.4782 43.3652 39.7793 43.5703 40.0332C43.7786 40.2871 44.0326 40.484 44.332 40.624C44.6315 40.764 44.9717 40.834 45.3525 40.834C45.7367 40.834 46.0768 40.764 46.373 40.624C46.6725 40.484 46.9248 40.2871 47.1299 40.0332C47.3382 39.7793 47.4961 39.4782 47.6035 39.1299C47.7109 38.7816 47.7646 38.3975 47.7646 37.9775ZM50.9299 33.8906H53.1955C53.648 33.8906 54.05 33.9704 54.4016 34.1299C54.7531 34.2861 55.0282 34.5173 55.2268 34.8232C55.4286 35.126 55.5295 35.4987 55.5295 35.9414C55.5295 36.2865 55.4546 36.599 55.3049 36.8789C55.1551 37.1556 54.9549 37.3835 54.7043 37.5625C54.4536 37.7415 54.1737 37.8538 53.8645 37.8994L53.7131 37.958H50.9934L50.9836 37.6943H53.4348C53.8417 37.6943 54.1802 37.6097 54.4504 37.4404C54.7206 37.2712 54.924 37.0531 55.0607 36.7861C55.1975 36.516 55.2658 36.2344 55.2658 35.9414C55.2658 35.5671 55.1812 35.248 55.0119 34.9844C54.8426 34.7174 54.6018 34.5124 54.2893 34.3691C53.98 34.2259 53.6154 34.1543 53.1955 34.1543H51.1936V41H50.9299V33.8906ZM55.549 41L53.6008 37.8652L53.9084 37.8555L55.8273 40.9316V41H55.549ZM63.0551 39.2959C63.0551 39.0713 63.016 38.8711 62.9379 38.6953C62.8598 38.5195 62.7344 38.3617 62.5619 38.2217C62.3894 38.0817 62.1631 37.9531 61.8832 37.8359C61.6065 37.7188 61.2663 37.6048 60.8627 37.4941C60.5014 37.3965 60.1758 37.2923 59.8861 37.1816C59.5964 37.0677 59.349 36.9375 59.1439 36.791C58.9421 36.6445 58.7875 36.4704 58.6801 36.2686C58.5727 36.0635 58.5189 35.8177 58.5189 35.5312C58.5189 35.2611 58.5775 35.0186 58.6947 34.8037C58.8152 34.5889 58.9812 34.4066 59.1928 34.2568C59.4076 34.1071 59.6583 33.9932 59.9447 33.915C60.2312 33.8337 60.5421 33.793 60.8773 33.793C61.3396 33.793 61.7481 33.8809 62.1029 34.0566C62.4577 34.2324 62.7361 34.4782 62.9379 34.7939C63.143 35.1064 63.2455 35.4727 63.2455 35.8926H62.9818C62.9818 35.541 62.8939 35.2269 62.7182 34.9502C62.5424 34.6735 62.2966 34.4554 61.9809 34.2959C61.6684 34.1364 61.3005 34.0566 60.8773 34.0566C60.4314 34.0566 60.0521 34.125 59.7396 34.2617C59.4271 34.3984 59.1895 34.5791 59.0268 34.8037C58.864 35.0251 58.7826 35.2643 58.7826 35.5215C58.7826 35.7103 58.8152 35.8861 58.8803 36.0488C58.9486 36.2116 59.0626 36.363 59.2221 36.5029C59.3816 36.6396 59.6013 36.7699 59.8812 36.8936C60.1612 37.014 60.5128 37.1296 60.9359 37.2402C61.2875 37.3314 61.6081 37.4339 61.8979 37.5479C62.1908 37.6618 62.4431 37.7969 62.6547 37.9531C62.8695 38.1094 63.0339 38.2965 63.1479 38.5146C63.265 38.7295 63.3236 38.9867 63.3236 39.2861C63.3236 39.5758 63.2602 39.833 63.1332 40.0576C63.0095 40.2822 62.837 40.4727 62.6156 40.6289C62.3943 40.7819 62.1371 40.8991 61.8441 40.9805C61.5544 41.0586 61.2436 41.0977 60.9115 41.0977C60.6088 41.0977 60.3028 41.0618 59.9936 40.9902C59.6843 40.9186 59.4011 40.8031 59.1439 40.6436C58.8868 40.4808 58.6801 40.2643 58.5238 39.9941C58.3676 39.724 58.2895 39.3903 58.2895 38.9932H58.5531C58.5531 39.348 58.6264 39.6442 58.7729 39.8818C58.9193 40.1195 59.1098 40.3083 59.3441 40.4482C59.5818 40.585 59.8373 40.6842 60.1107 40.7461C60.3874 40.8047 60.6544 40.834 60.9115 40.834C61.3282 40.834 61.6977 40.7689 62.0199 40.6387C62.3422 40.5085 62.5945 40.3278 62.7768 40.0967C62.9623 39.8656 63.0551 39.5986 63.0551 39.2959ZM74.2781 38.8223H74.5418C74.493 39.3333 74.3579 39.7581 74.1365 40.0967C73.9184 40.432 73.6271 40.6826 73.2625 40.8486C72.9012 41.0146 72.4829 41.0977 72.0076 41.0977C71.617 41.0977 71.2638 41.0228 70.948 40.873C70.6323 40.7233 70.3605 40.5101 70.1326 40.2334C69.908 39.9567 69.7355 39.6279 69.615 39.2471C69.4946 38.863 69.4344 38.4398 69.4344 37.9775V36.9131C69.4344 36.4476 69.4946 36.0244 69.615 35.6436C69.7355 35.2627 69.908 34.9339 70.1326 34.6572C70.3605 34.3805 70.6323 34.1673 70.948 34.0176C71.2638 33.8678 71.617 33.793 72.0076 33.793C72.4829 33.793 72.9012 33.876 73.2625 34.042C73.6271 34.208 73.9184 34.4587 74.1365 34.7939C74.3579 35.1292 74.493 35.5508 74.5418 36.0586H74.2781C74.2293 35.6224 74.1105 35.2562 73.9217 34.96C73.7361 34.6637 73.4822 34.4391 73.16 34.2861C72.841 34.1331 72.4568 34.0566 72.0076 34.0566C71.6626 34.0566 71.3484 34.125 71.0652 34.2617C70.782 34.3952 70.5379 34.5872 70.3328 34.8379C70.131 35.0885 69.9747 35.388 69.8641 35.7363C69.7534 36.0846 69.698 36.4736 69.698 36.9033V37.9775C69.698 38.4072 69.7534 38.7979 69.8641 39.1494C69.9747 39.501 70.131 39.8021 70.3328 40.0527C70.5379 40.3034 70.782 40.4971 71.0652 40.6338C71.3484 40.7673 71.6626 40.834 72.0076 40.834C72.4471 40.834 72.8279 40.764 73.1502 40.624C73.4725 40.4808 73.728 40.2611 73.9168 39.9648C74.1089 39.6654 74.2293 39.2845 74.2781 38.8223ZM81.4082 40.7363V41H77.5898V40.7363H81.4082ZM77.7607 33.8906V41H77.4922V33.8906H77.7607ZM88.216 33.8906H88.4797V38.71C88.4797 39.2406 88.3739 39.6833 88.1623 40.0381C87.9507 40.3929 87.661 40.6582 87.2932 40.834C86.9286 41.0098 86.5152 41.0977 86.0529 41.0977C85.5907 41.0977 85.1757 41.0098 84.8078 40.834C84.4432 40.6582 84.1535 40.3929 83.9387 40.0381C83.7271 39.6833 83.6213 39.2406 83.6213 38.71V33.8906H83.885V38.71C83.885 39.1657 83.9794 39.5531 84.1682 39.8721C84.3602 40.1878 84.619 40.4271 84.9445 40.5898C85.2733 40.7526 85.6428 40.834 86.0529 40.834C86.4631 40.834 86.8309 40.7526 87.1564 40.5898C87.4852 40.4271 87.744 40.1878 87.9328 39.8721C88.1216 39.5531 88.216 39.1657 88.216 38.71V33.8906ZM94.0326 37.4893H91.8256L91.8158 37.2256H93.6322C94.0619 37.2256 94.4216 37.1702 94.7113 37.0596C95.0043 36.9489 95.224 36.7796 95.3705 36.5518C95.517 36.3239 95.5902 36.0374 95.5902 35.6924C95.5902 35.3506 95.5121 35.0658 95.3559 34.8379C95.2029 34.61 94.9734 34.4391 94.6674 34.3252C94.3646 34.2113 93.987 34.1543 93.5346 34.1543H91.9281V41H91.6645V33.8906H93.5346C93.8926 33.8906 94.2149 33.9264 94.5014 33.998C94.7878 34.0697 95.032 34.1803 95.2338 34.3301C95.4356 34.4798 95.5902 34.6702 95.6977 34.9014C95.8051 35.1292 95.8588 35.3994 95.8588 35.7119C95.8588 36.0049 95.8034 36.2686 95.6928 36.5029C95.5854 36.7373 95.4275 36.9277 95.2191 37.0742C95.0108 37.2207 94.7536 37.3102 94.4477 37.3428L94.0326 37.4893ZM93.9838 41H91.8158L91.8988 40.7363H93.9838C94.3842 40.7363 94.7276 40.6696 95.0141 40.5361C95.3038 40.4027 95.5268 40.2106 95.683 39.96C95.8393 39.7061 95.9174 39.4033 95.9174 39.0518C95.9174 38.7783 95.8474 38.5228 95.7074 38.2852C95.5707 38.0475 95.3624 37.8555 95.0824 37.709C94.8025 37.5625 94.4525 37.4893 94.0326 37.4893H92.8803L92.89 37.2256H94.5746L94.5941 37.3184C94.8936 37.3542 95.1622 37.4535 95.3998 37.6162C95.6407 37.779 95.8311 37.9857 95.9711 38.2363C96.1111 38.4837 96.1811 38.7523 96.1811 39.042C96.1811 39.4619 96.0867 39.8184 95.8979 40.1113C95.7123 40.401 95.4551 40.6224 95.1264 40.7754C94.7976 40.9251 94.4167 41 93.9838 41Z" fill="white"/>
</svg>
